<?xml version="1.0" encoding="UTF-8" standalone="no" ?>
<!DOCTYPE svg PUBLIC "-//W3C//DTD SVG 1.1//EN" "http://www.w3.org/Graphics/SVG/1.1/DTD/svg11.dtd">
<svg xmlns="http://www.w3.org/2000/svg" xmlns:xlink="http://www.w3.org/1999/xlink" version="1.1" width="1024" height="1024" viewBox="0 0 1024 1024" xml:space="preserve">
<desc>Created with Fabric.js 5.3.0</desc>
<defs>
</defs>
<g transform="matrix(8.8625 0 0 8.8625 511.8556933484 512.1443066516)" id="B3Z8UYZYtnVFoQFE9o5FX"  >
<path style="stroke: rgb(232,3,76); stroke-width: 0; stroke-dasharray: none; stroke-linecap: butt; stroke-dashoffset: 0; stroke-linejoin: miter; stroke-miterlimit: 4; fill: rgb(242,167,46); fill-rule: nonzero; opacity: 1;"  transform=" translate(0, 0)" d="M -57.72266 -33.23301 C -57.72266 -46.758269999999996 -46.758269999999996 -57.722660000000005 -33.23300999999999 -57.722660000000005 L 33.23301000000001 -57.722660000000005 L 33.23301000000001 -57.722660000000005 C 46.75827000000001 -57.722660000000005 57.722660000000005 -46.75827 57.722660000000005 -33.23301000000001 L 57.722660000000005 33.23300999999999 L 57.722660000000005 33.23300999999999 C 57.722660000000005 46.758269999999996 46.75827 57.72265999999999 33.23301000000001 57.72265999999999 L -33.23300999999999 57.72265999999999 L -33.23300999999999 57.72265999999999 C -46.758269999999996 57.72265999999999 -57.72265999999999 46.75826999999999 -57.72265999999999 33.23300999999999 z" stroke-linecap="round" />
</g>
<g transform="matrix(1 0 0 1 324.1131360428 525.3497123982)" id="ACTaF9zw9u1y5W10F_bUC"  >
<g style=""   >
		<g transform="matrix(1 0 0 1 -1.1544532131 0)" id="hdHbBkGAf2p78XMTmvjWO"  >
<path style="stroke: rgb(255,255,255); stroke-width: 25; stroke-dasharray: none; stroke-linecap: butt; stroke-dashoffset: 0; stroke-linejoin: miter; stroke-miterlimit: 4; fill: rgb(255,255,255); fill-opacity: 0; fill-rule: nonzero; opacity: 1;"  transform=" translate(0, 0)" d="M 156.71663 261.98738 L 156.71663 -411.05884 C 156.71663 -411.05884 119.43216000000001 -414.44316999999995 88.83915 -403.47587 C 58.246140000000004 -392.50856 34.344590000000004 -367.18962 34.344590000000004 -367.18962 C 34.344590000000004 -367.18962 -10.967649999999999 -365.44878 -38.0973 -338.03051 C -65.22695 -310.61225 -74.17401 -257.51656 -74.17401 -257.51656 C -74.17401 -257.51656 -109.38483 -245.4636 -122.66103999999999 -216.60227000000003 C -135.93724999999998 -187.74094000000002 -127.27884999999999 -142.07124000000005 -127.27884999999999 -142.07124000000005 C -127.27884999999999 -142.07124000000005 -155.21350999999999 -106.05141000000005 -156.65657 -63.62525000000005 C -158.09964 -21.199090000000048 -133.05111 27.63338999999995 -133.05111 27.63338999999995 C -133.05111 27.63338999999995 -151.18299 82.93609999999995 -142.8132 133.73203999999996 C -134.44341 184.52797999999996 -99.57195999999999 216.96371999999997 -99.57195999999999 216.96371999999997 C -99.57195999999999 216.96371999999997 -99.86057 259.85756999999995 -74.17398999999999 288.14167 C -48.48740999999999 316.42577 3.1743800000000135 330.10013 3.1743800000000135 330.10013 C 3.1743800000000135 330.10013 24.035810000000012 380.12169 62.42138000000001 399.74739999999997 C 100.80695000000001 419.37309999999997 156.71666000000002 408.60294999999996 156.71666000000002 408.60294999999996 z" stroke-linecap="round" />
</g>
		<g transform="matrix(1 0 0 1 45.5108774859 -211.9156650476)" id="_sImWffWgZTQcGs-Snbh2"  >
<path style="stroke: rgb(255,255,255); stroke-width: 25; stroke-dasharray: none; stroke-linecap: butt; stroke-dashoffset: 0; stroke-linejoin: miter; stroke-miterlimit: 4; fill: rgb(255,255,255); fill-opacity: 0; fill-rule: nonzero; opacity: 1;"  transform=" translate(0, 0)" d="M -48.86528 -43.292 C -48.86528 -43.292 -13.411470000000001 -32.00365 11.021170000000005 -10.35765 C 35.453810000000004 11.288350000000001 48.86527 43.29199 48.86527 43.29199" stroke-linecap="round" />
</g>
		<g transform="matrix(1 0 0 1 81.4497940198 -0.0332770421)" id="KWjnqNYBfl2fUA-ptvvja"  >
<path style="stroke: rgb(255,255,255); stroke-width: 25; stroke-dasharray: none; stroke-linecap: butt; stroke-dashoffset: 0; stroke-linejoin: miter; stroke-miterlimit: 4; fill: rgb(255,255,255); fill-opacity: 0; fill-rule: nonzero; opacity: 1;"  transform=" translate(0, 0)" d="M 76.42129 -49.68171 C 76.42129 -49.68171 21.421149999999997 -45.35251 -21.707229999999996 -13.316430000000004 C -64.83561 18.719649999999994 -76.42128 49.68172 -76.42128 49.68172" stroke-linecap="round" />
</g>
		<g transform="matrix(-0.8191520443 0.5735764364 -0.5735764364 -0.8191520443 -60.8277910911 -106.5050880707)" id="t_hJfkjoqR36Jf8u4l0Ua"  >
<path style="stroke: rgb(255,255,255); stroke-width: 25; stroke-dasharray: none; stroke-linecap: butt; stroke-dashoffset: 0; stroke-linejoin: miter; stroke-miterlimit: 4; fill: rgb(255,255,255); fill-opacity: 0; fill-rule: nonzero; opacity: 1;"  transform=" translate(0, -0.000005)" d="M 71.24887 -58.87711 C 71.24887 -58.87711 16.248729999999995 -54.54791 -26.879649999999998 -22.511830000000003 C -70.00802999999999 9.524249999999995 -71.24887 58.87711999999999 -71.24887 58.87711999999999" stroke-linecap="round" />
</g>
		<g transform="matrix(0.6427876097 -0.7660444431 0.7660444431 0.6427876097 24.095720831 118.5508611742)" id="DJ5vuI4Fhgb7BpKb2BPJm"  >
<path style="stroke: rgb(255,255,255); stroke-width: 25; stroke-dasharray: none; stroke-linecap: butt; stroke-dashoffset: 0; stroke-linejoin: miter; stroke-miterlimit: 4; fill: rgb(255,255,255); fill-opacity: 0; fill-rule: nonzero; opacity: 1;"  transform=" translate(0, 0)" d="M -64.07215 -66.38106 C -64.07215 -66.38106 -46.466739999999994 -22.223220000000005 -14.430659999999996 10.967309999999998 C 17.605420000000002 44.15784 64.07216 66.38105999999999 64.07216 66.38105999999999" stroke-linecap="round" />
</g>
		<g transform="matrix(-0.984807753 0.1736481777 -0.1736481777 -0.984807753 43.3318504184 290.1256853463)" id="jxRGqsIroiy86hM0MBJYG"  >
<path style="stroke: rgb(255,255,255); stroke-width: 25; stroke-dasharray: none; stroke-linecap: butt; stroke-dashoffset: 0; stroke-linejoin: miter; stroke-miterlimit: 4; fill: rgb(255,255,255); fill-opacity: 0; fill-rule: nonzero; opacity: 1;"  transform=" translate(-0.000005, 0)" d="M -64.07215 -66.38106 C -64.07215 -66.38106 -46.466739999999994 -22.223220000000005 -14.430659999999996 10.967309999999998 C 17.605420000000002 44.15784 64.07216 66.38105999999999 64.07216 66.38105999999999" stroke-linecap="round" />
</g>
</g>
</g>
<g transform="matrix(1 0 0 1 718.0648706087 423.1121305187)" id="yf_9Gx_k4elgA5T3G5eHd"  >
<path style="stroke: rgb(255,255,255); stroke-width: 25; stroke-dasharray: none; stroke-linecap: butt; stroke-dashoffset: 0; stroke-linejoin: miter; stroke-miterlimit: 4; fill: rgb(255,255,255); fill-opacity: 0; fill-rule: nonzero; opacity: 1;"  transform=" translate(0, 0)" d="M -118.32643 136.22045 L 90.6296 -241.86298000000002 L 141.42554 -215.31056 L -67.53048999999999 165.659 L -141.42555 241.86297 z" stroke-linecap="round" />
</g>
<g transform="matrix(1 0 0 1 658.1186183216 513.2098256039)" id="Teg-P7iOMS7QIX-UGpQ98"  >
<path style="stroke: rgb(255,255,255); stroke-width: 25; stroke-dasharray: none; stroke-linecap: butt; stroke-dashoffset: 0; stroke-linejoin: miter; stroke-miterlimit: 4; fill: rgb(255,255,255); fill-opacity: 0; fill-rule: nonzero; opacity: 1;"  transform=" translate(0, 0)" d="M -27.01149 -12.13989 L 27.0115 12.13988" stroke-linecap="round" />
</g>
<g transform="matrix(1 0 0 1 511.8556933484 161.6234498309)" id="pD-_y1lEvtyHpjJr6yvah"  >
<path style="stroke: rgb(255,255,255); stroke-width: 25; stroke-dasharray: none; stroke-linecap: butt; stroke-dashoffset: 0; stroke-linejoin: miter; stroke-miterlimit: 4; fill: rgb(255,255,255); fill-opacity: 0; fill-rule: nonzero; opacity: 1;"  transform=" translate(0, 0)" d="M 0 0" stroke-linecap="round" />
</g>
<g transform="matrix(1 0 0 1 621.3819279763 148.924464487)" id="gIenq7JPeG9zEB7JV7zef"  >
<path style="stroke: rgb(255,255,255); stroke-width: 25; stroke-dasharray: none; stroke-linecap: butt; stroke-dashoffset: 0; stroke-linejoin: miter; stroke-miterlimit: 4; fill: rgb(255,255,255); fill-opacity: 0; fill-rule: nonzero; opacity: 1;"  transform=" translate(0, 0)" d="M -96.68294 0 L 96.68295 0" stroke-linecap="round" />
</g>
<g transform="matrix(1 0 0 1 608.146843292 262.0608793687)" id="J-VCI3ZljWc2B8tn_yvHO"  >
<path style="stroke: rgb(255,255,255); stroke-width: 25; stroke-dasharray: none; stroke-linecap: butt; stroke-dashoffset: 0; stroke-linejoin: miter; stroke-miterlimit: 4; fill: rgb(255,255,255); fill-opacity: 0; fill-rule: nonzero; opacity: 1;"  transform=" translate(0, 0)" d="M -83.94786 0 L 83.94786 0" stroke-linecap="round" />
</g>
<g transform="matrix(1 0 0 1 576.9766065389 364.8072153326)" id="tNsIhuWY868fDSqK-7Od8"  >
<path style="stroke: rgb(255,255,255); stroke-width: 25; stroke-dasharray: none; stroke-linecap: butt; stroke-dashoffset: 0; stroke-linejoin: miter; stroke-miterlimit: 4; fill: rgb(255,255,255); fill-opacity: 0; fill-rule: nonzero; opacity: 1;"  transform=" translate(0, 0)" d="M -52.77762 0 L 52.77762 0" stroke-linecap="round" />
</g>
<g transform="matrix(1 0 0 1 550.5877959414 461.7812852311)" id="PvyceEIWx0KH9WK-xQdPa"  >
<path style="stroke: rgb(255,255,255); stroke-width: 25; stroke-dasharray: none; stroke-linecap: butt; stroke-dashoffset: 0; stroke-linejoin: miter; stroke-miterlimit: 4; fill: rgb(255,255,255); fill-opacity: 0; fill-rule: nonzero; opacity: 1;"  transform=" translate(0, 0)" d="M -26.38881 0 L 26.38881 0" stroke-linecap="round" />
</g>
<g transform="matrix(1 0 0 1 537.1433906426 573.7632468997)" id="dkm94qt7oHXKSE0FxeCfa"  >
<path style="stroke: rgb(255,255,255); stroke-width: 25; stroke-dasharray: none; stroke-linecap: butt; stroke-dashoffset: 0; stroke-linejoin: miter; stroke-miterlimit: 4; fill: rgb(255,255,255); fill-opacity: 0; fill-rule: nonzero; opacity: 1;"  transform=" translate(0, 0)" d="M -13.44441 0 L 13.4444 0" stroke-linecap="round" />
</g>
<g transform="matrix(1 0 0 1 807.5400225479 365.3072153326)" id="vxyA3EWBP-GvO7avQu4EN"  >
<path style="stroke: rgb(255,255,255); stroke-width: 25; stroke-dasharray: none; stroke-linecap: butt; stroke-dashoffset: 0; stroke-linejoin: miter; stroke-miterlimit: 4; fill: rgb(255,255,255); fill-opacity: 0; fill-rule: nonzero; opacity: 1;"  transform=" translate(0, 0)" d="M 0 0" stroke-linecap="round" />
</g>
<g transform="matrix(1 0 0 1 779.833145434 462.2812852311)" id="ME3LnplNf9xxE4XFzwBiu"  >
<path style="stroke: rgb(255,255,255); stroke-width: 25; stroke-dasharray: none; stroke-linecap: butt; stroke-dashoffset: 0; stroke-linejoin: miter; stroke-miterlimit: 4; fill: rgb(255,255,255); fill-opacity: 0; fill-rule: nonzero; opacity: 1;"  transform=" translate(0, 0)" d="M 0 0" stroke-linecap="round" />
</g>
<g transform="matrix(1 0 0 1 831.6840473506 461.2812852311)" id="8aZ3lh5bN5cwYcwk8ixFu"  >
<path style="stroke: rgb(255,255,255); stroke-width: 25; stroke-dasharray: none; stroke-linecap: butt; stroke-dashoffset: 0; stroke-linejoin: miter; stroke-miterlimit: 4; fill: rgb(255,255,255); fill-opacity: 0; fill-rule: nonzero; opacity: 1;"  transform=" translate(0, 0)" d="M -40.30637 0 L 40.30637 0" stroke-linecap="round" />
</g>
<g transform="matrix(1 0 0 1 803.9771702368 574.0132468997)" id="8VBWruqbIoPuA23OiDIdD"  >
<path style="stroke: rgb(255,255,255); stroke-width: 25; stroke-dasharray: none; stroke-linecap: butt; stroke-dashoffset: 0; stroke-linejoin: miter; stroke-miterlimit: 4; fill: rgb(255,255,255); fill-opacity: 0; fill-rule: nonzero; opacity: 1;"  transform=" translate(0, 0)" d="M -68.01325 -0.25 L 68.01324 0.25" stroke-linecap="round" />
</g>
</svg>